HIERARCHY
ROOT Hips
{
	OFFSET 0.000000 103.266502 0.000000
	CHANNELS 6 Xposition Yposition Zposition Xrotation Yrotation Zrotation 
	JOINT Spine
	{
		OFFSET -0.002400 12.777504 0.315300
		CHANNELS 3 Xrotation Yrotation Zrotation
		JOINT Spine1
		{
			OFFSET -0.002067 5.816869 0.032633
			CHANNELS 3 Xrotation Yrotation Zrotation
			JOINT Spine1_split
			{
				OFFSET -0.002067 5.816869 0.032633
				CHANNELS 3 Xrotation Yrotation Zrotation
				JOINT Spine2
				{
					OFFSET -0.002067 5.816869 0.032633
					CHANNELS 3 Xrotation Yrotation Zrotation
					JOINT Neck
					{
						OFFSET -0.003700 21.199493 -0.826900
						CHANNELS 3 Xrotation Yrotation Zrotation
						JOINT Head
						{
							OFFSET 0.000000 20.442200 4.834800
							CHANNELS 3 Xrotation Yrotation Zrotation
							JOINT HeadTop_End
							{
								OFFSET 0.000000 34.668396 4.968400
								CHANNELS 3 Xrotation Yrotation Zrotation
								End Site
								{
									OFFSET 0.000000 0.000000 0.000000
								}
							}
						}
					}
					JOINT LeftShoulder
					{
						OFFSET 3.288150 8.794197 -1.372250
						CHANNELS 3 Xrotation Yrotation Zrotation
						JOINT LeftShoulder_split
						{
							OFFSET 3.288150 8.794197 -1.372250
							CHANNELS 3 Xrotation Yrotation Zrotation
							JOINT LeftArm
							{
								OFFSET 11.953299 -2.279007 -0.146200
								CHANNELS 3 Xrotation Yrotation Zrotation
								JOINT LeftForeArm
								{
									OFFSET 18.448900 0.000000 0.000000
									CHANNELS 3 Xrotation Yrotation Zrotation
									JOINT LeftHand
									{
										OFFSET 29.527798 0.000000 0.000000
										CHANNELS 3 Xrotation Yrotation Zrotation
										JOINT LeftHandThumb1
										{
											OFFSET 10.739754 -2.369614 9.225399
											CHANNELS 3 Xrotation Yrotation Zrotation
											JOINT LeftHandThumb2
											{
												OFFSET 4.926170 -2.844131 2.844125
												CHANNELS 3 Xrotation Yrotation Zrotation
												JOINT LeftHandThumb3
												{
													OFFSET 4.614891 -2.664413 2.664409
													CHANNELS 3 Xrotation Yrotation Zrotation
													JOINT LeftHandThumb4
													{
														OFFSET 4.432465 -2.559082 2.559083
														CHANNELS 3 Xrotation Yrotation Zrotation
														End Site
														{
															OFFSET 0.000000 0.000000 0.000000
														}
													}
												}
											}
										}
										JOINT LeftHandIndex1
										{
											OFFSET 26.467674 0.187653 6.405298
											CHANNELS 3 Xrotation Yrotation Zrotation
											JOINT LeftHandIndex2
											{
												OFFSET 8.792900 0.000000 0.000000
												CHANNELS 3 Xrotation Yrotation Zrotation
												JOINT LeftHandIndex3
												{
													OFFSET 10.075203 0.000000 0.000000
													CHANNELS 3 Xrotation Yrotation Zrotation
													End Site
													{
														OFFSET 0.000000 0.000000 0.000000
													}
												}
											}
										}
										JOINT LeftHandMiddle1
										{
											OFFSET 25.764404 0.000000 0.000000
											CHANNELS 3 Xrotation Yrotation Zrotation
											JOINT LeftHandMiddle2
											{
												OFFSET 9.393974 0.000000 0.000000
												CHANNELS 3 Xrotation Yrotation Zrotation
												JOINT LeftHandMiddle3
												{
													OFFSET 10.771950 0.000000 0.000000
													CHANNELS 3 Xrotation Yrotation Zrotation
													End Site
													{
														OFFSET 0.000000 0.000000 0.000000
													}
												}
											}
										}
										JOINT LeftHandRing1
										{
											OFFSET 24.660927 0.144547 -6.225808
											CHANNELS 3 Xrotation Yrotation Zrotation
											JOINT LeftHandRing2
											{
												OFFSET 9.393799 0.000000 0.000000
												CHANNELS 3 Xrotation Yrotation Zrotation
												JOINT LeftHandRing3
												{
													OFFSET 9.928497 0.000000 0.000000
													CHANNELS 3 Xrotation Yrotation Zrotation
													End Site
													{
														OFFSET 0.000000 0.000000 0.000000
													}
												}
											}
										}
										JOINT LeftHandPinky1
										{
											OFFSET 23.655350 0.125290 -12.815412
											CHANNELS 3 Xrotation Yrotation Zrotation
											JOINT LeftHandPinky2
											{
												OFFSET 8.425102 0.000000 0.000000
												CHANNELS 3 Xrotation Yrotation Zrotation
												JOINT LeftHandPinky3
												{
													OFFSET 8.147003 0.000000 0.000000
													CHANNELS 3 Xrotation Yrotation Zrotation
													End Site
													{
														OFFSET 0.000000 0.000000 0.000000
													}
												}
											}
										}
									}
								}
							}
						}
					}
					JOINT RightShoulder
					{
						OFFSET -3.249400 8.794197 -1.372250
						CHANNELS 3 Xrotation Yrotation Zrotation
						JOINT RightShoulder_split
						{
							OFFSET -3.249400 8.794197 -1.372250
							CHANNELS 3 Xrotation Yrotation Zrotation
							JOINT RightArm
							{
								OFFSET -11.953299 -2.279007 -0.146200
								CHANNELS 3 Xrotation Yrotation Zrotation
								JOINT RightForeArm
								{
									OFFSET -18.448900 0.000000 0.000000
									CHANNELS 3 Xrotation Yrotation Zrotation
									JOINT RightHand
									{
										OFFSET -29.527802 0.000000 0.000000
										CHANNELS 3 Xrotation Yrotation Zrotation
										JOINT RightHandThumb1
										{
											OFFSET -10.739754 -2.369614 9.225399
											CHANNELS 3 Xrotation Yrotation Zrotation
											JOINT RightHandThumb2
											{
												OFFSET -4.926170 -2.844131 2.844125
												CHANNELS 3 Xrotation Yrotation Zrotation
												JOINT RightHandThumb3
												{
													OFFSET -4.614891 -2.664413 2.664409
													CHANNELS 3 Xrotation Yrotation Zrotation
													JOINT RightHandThumb4
													{
														OFFSET -4.432465 -2.559082 2.559083
														CHANNELS 3 Xrotation Yrotation Zrotation
														End Site
														{
															OFFSET 0.000000 0.000000 0.000000
														}
													}
												}
											}
										}
										JOINT RightHandIndex1
										{
											OFFSET -26.467674 0.187653 6.405298
											CHANNELS 3 Xrotation Yrotation Zrotation
											JOINT RightHandIndex2
											{
												OFFSET -8.792900 0.000000 0.000000
												CHANNELS 3 Xrotation Yrotation Zrotation
												JOINT RightHandIndex3
												{
													OFFSET -10.075203 0.000000 0.000000
													CHANNELS 3 Xrotation Yrotation Zrotation
													End Site
													{
														OFFSET 0.000000 0.000000 0.000000
													}
												}
											}
										}
										JOINT RightHandMiddle1
										{
											OFFSET -25.764404 0.000000 0.000000
											CHANNELS 3 Xrotation Yrotation Zrotation
											JOINT RightHandMiddle2
											{
												OFFSET -9.393974 0.000000 0.000000
												CHANNELS 3 Xrotation Yrotation Zrotation
												JOINT RightHandMiddle3
												{
													OFFSET -10.771950 0.000000 0.000000
													CHANNELS 3 Xrotation Yrotation Zrotation
													End Site
													{
														OFFSET 0.000000 0.000000 0.000000
													}
												}
											}
										}
										JOINT RightHandRing1
										{
											OFFSET -24.660927 0.144547 -6.225808
											CHANNELS 3 Xrotation Yrotation Zrotation
											JOINT RightHandRing2
											{
												OFFSET -9.393799 0.000000 0.000000
												CHANNELS 3 Xrotation Yrotation Zrotation
												JOINT RightHandRing3
												{
													OFFSET -9.928497 0.000000 0.000000
													CHANNELS 3 Xrotation Yrotation Zrotation
													End Site
													{
														OFFSET 0.000000 0.000000 0.000000
													}
												}
											}
										}
										JOINT RightHandPinky1
										{
											OFFSET -23.655350 0.125290 -12.815412
											CHANNELS 3 Xrotation Yrotation Zrotation
											JOINT RightHandPinky2
											{
												OFFSET -8.425102 0.000000 0.000000
												CHANNELS 3 Xrotation Yrotation Zrotation
												JOINT RightHandPinky3
												{
													OFFSET -8.147003 0.000000 0.000000
													CHANNELS 3 Xrotation Yrotation Zrotation
													End Site
													{
														OFFSET 0.000000 0.000000 0.000000
													}
												}
											}
										}
									}
								}
							}
						}
					}
				}
			}
		}
	}
	JOINT LeftUpLeg
	{
		OFFSET 11.394100 -6.187798 -0.413800
		CHANNELS 3 Xrotation Yrotation Zrotation
		JOINT LeftLeg
		{
			OFFSET 0.430247 -32.302673 3.732800
			CHANNELS 3 Xrotation Yrotation Zrotation
			JOINT LeftFoot
			{
				OFFSET -0.430247 -48.264931 -6.423300
				CHANNELS 3 Xrotation Yrotation Zrotation
				JOINT LeftToeBase
				{
					OFFSET 4.230900 -16.068199 23.438400
					CHANNELS 3 Xrotation Yrotation Zrotation
					JOINT LeftToe_End
					{
						OFFSET 4.510700 0.695400 19.974600
						CHANNELS 3 Xrotation Yrotation Zrotation
						End Site
						{
							OFFSET 0.000000 0.000000 0.000000
						}
					}
				}
			}
		}
	}
	JOINT RightUpLeg
	{
		OFFSET -11.333700 -6.187798 -0.413800
		CHANNELS 3 Xrotation Yrotation Zrotation
		JOINT RightLeg
		{
			OFFSET -0.430392 -32.302628 3.733000
			CHANNELS 3 Xrotation Yrotation Zrotation
			JOINT RightFoot
			{
				OFFSET 0.430392 -48.264973 -6.423500
				CHANNELS 3 Xrotation Yrotation Zrotation
				JOINT RightToeBase
				{
					OFFSET -4.230900 -16.068199 23.438400
					CHANNELS 3 Xrotation Yrotation Zrotation
					JOINT RightToe_End
					{
						OFFSET -4.510700 0.695400 19.974600
						CHANNELS 3 Xrotation Yrotation Zrotation
						End Site
						{
							OFFSET 0.000000 0.000000 0.000000
						}
					}
				}
			}
		}
	}
}
MOTION
Frames: 4
Frame Time: 0.016667
0.575873 110.647552 -4.072510 -92.964960 0.982311 1.572169 3.831688 1.358733 -0.570074 17.173665 2.320172 -1.615368 0.000000 0.000000 0.000000 15.078713 2.910057 -1.904893 1.032852 0.830504 -3.592071 20.824678 3.567343 -10.053783 -0.000001 0.000000 -0.000000 0.987219 5.865647 -0.070264 0.000000 0.000000 0.000000 17.540354 -48.233642 -39.213444 -0.000066 -78.452987 -0.000057 -11.155061 -10.690903 -3.204731 6.590532 -4.958656 16.122646 7.178846 21.567326 2.147320 -3.980788 36.507505 21.976004 -0.000001 0.000003 0.000005 0.659511 4.932349 -26.024469 0.169802 1.401619 -13.813550 0.000001 0.000001 0.000001 1.376921 6.461953 -24.994179 0.169877 1.401982 -13.817109 0.000001 -0.000001 0.000000 2.098716 8.644298 -21.209677 0.169792 1.401616 -13.813550 -0.000001 0.000002 0.000000 2.123424 10.735872 -14.817561 0.167499 1.392245 -13.719348 0.000001 -0.000001 0.000000 1.003565 3.077426 16.318586 0.000000 0.000000 0.000000 -30.625322 39.526120 60.112550 0.000052 122.611253 -0.000045 2.149662 2.949031 16.100983 -3.770189 1.684405 8.767259 7.918241 -27.751665 -3.100784 -3.337687 -26.655592 -19.006782 0.000003 0.000001 0.000000 -0.371396 2.206057 53.128336 1.396283 -3.326841 45.526667 -0.000002 0.000002 -0.000002 -1.457713 -4.435181 63.714634 1.929830 -3.776462 54.123075 0.000001 -0.000004 -0.000001 0.113598 -5.549216 69.688038 2.144047 -3.922167 57.313237 -0.000001 0.000001 -0.000001 2.818444 -6.533419 66.047581 2.835550 -4.286864 66.951618 0.000000 -0.000004 0.000000 -3.553089 17.815367 18.725204 6.205865 5.360507 1.532266 23.344979 29.369687 -30.565083 2.018165 -0.000007 0.000001 0.000001 0.000000 -0.000000 -2.525651 -17.560427 -12.901080 4.972622 -7.696435 -8.154364 33.985310 -29.251067 28.898718 -6.237122 0.000000 -0.000005 -0.000000 0.000003 -0.000001 
0.536511 110.599106 -4.008652 -92.873067 0.834873 1.486734 3.764991 1.334676 -0.537673 16.775778 2.298674 -1.540693 0.000000 0.000000 0.000000 14.708510 2.873934 -1.840032 1.206947 0.819801 -3.467083 21.720504 3.566619 -10.135178 -0.000001 -0.000001 0.000000 1.057890 5.646928 -0.072702 0.000000 0.000000 0.000000 17.692970 -47.941111 -39.648811 -0.000002 -78.307122 -0.000008 -11.274802 -10.604931 -3.471100 6.590533 -4.958652 16.122648 7.178851 21.567320 2.147316 -3.980790 36.507505 21.975995 -0.000000 0.000001 0.000004 0.659513 4.932352 -26.024462 0.169804 1.401613 -13.813550 -0.000001 0.000001 0.000000 1.376921 6.461956 -24.994179 0.169880 1.401984 -13.817109 -0.000001 -0.000003 -0.000002 2.098713 8.644299 -21.209677 0.169793 1.401617 -13.813547 0.000004 0.000000 -0.000001 2.123424 10.735874 -14.817561 0.167503 1.392244 -13.719348 -0.000000 -0.000002 -0.000001 0.998596 3.039513 16.387543 0.000000 0.000000 0.000000 -30.378380 39.942390 60.251885 0.000011 121.965541 -0.000027 1.852856 2.561963 15.661371 -3.770202 1.684401 8.767253 7.918247 -27.751665 -3.100784 -3.337690 -26.655606 -19.006781 0.000001 -0.000001 -0.000003 -0.371393 2.206054 53.128336 1.396298 -3.326840 45.526646 -0.000000 0.000002 -0.000002 -1.457704 -4.435179 63.714627 1.929832 -3.776463 54.123071 0.000000 -0.000002 0.000000 0.113586 -5.549225 69.688010 2.144059 -3.922155 57.313251 -0.000001 0.000002 -0.000000 2.818456 -6.533424 66.047574 2.835552 -4.286857 66.951604 0.000000 -0.000000 -0.000002 -3.662918 17.783405 18.738390 6.135195 5.447554 1.575435 23.853502 29.369807 -30.567883 1.641711 -0.000009 0.000022 0.000001 0.000002 -0.000000 -2.710540 -17.513039 -12.821348 4.908318 -7.804776 -8.015612 34.283260 -29.066683 28.676976 -6.538367 0.000005 0.000003 0.000001 -0.000001 -0.000001 
0.507869 110.555916 -3.927910 -92.661946 0.752504 1.398291 3.668673 1.280218 -0.507763 16.309071 2.217898 -1.457731 0.000000 0.000000 0.000000 14.304878 2.791182 -1.752529 1.371173 0.810480 -3.366241 22.599870 3.500705 -10.232340 -0.000000 -0.000000 0.000001 1.036053 5.431822 -0.068783 0.000000 0.000000 0.000000 17.978689 -47.538977 -40.193754 0.000034 -78.189451 0.000042 -11.401804 -10.483621 -3.731929 6.590531 -4.958655 16.122648 7.178852 21.567328 2.147317 -3.980794 36.507505 21.976002 -0.000003 0.000001 -0.000000 0.659513 4.932346 -26.024464 0.169799 1.401618 -13.813549 0.000000 0.000001 0.000001 1.376917 6.461951 -24.994171 0.169878 1.401977 -13.817112 -0.000003 0.000002 0.000002 2.098711 8.644296 -21.209674 0.169792 1.401612 -13.813549 -0.000000 0.000001 -0.000001 2.123423 10.735873 -14.817559 0.167500 1.392243 -13.719347 0.000003 -0.000001 -0.000001 1.002757 3.007375 16.447019 0.000000 0.000000 0.000000 -30.000711 40.337649 60.294280 -0.000006 121.436747 0.000006 1.901610 2.536344 15.603103 -3.770202 1.684404 8.767251 7.918243 -27.751663 -3.100779 -3.337698 -26.655594 -19.006789 -0.000001 -0.000001 -0.000002 -0.371401 2.206052 53.128357 1.396290 -3.326845 45.526657 -0.000001 -0.000001 0.000002 -1.457711 -4.435173 63.714655 1.929832 -3.776462 54.123075 0.000000 0.000006 -0.000000 0.113498 -5.549176 69.688051 2.144051 -3.922164 57.313258 -0.000000 0.000002 0.000000 2.818445 -6.533420 66.047608 2.835553 -4.286864 66.951584 0.000000 -0.000002 -0.000001 -3.769845 17.740826 18.753241 5.899792 5.548481 1.570136 24.577157 29.372313 -30.579279 0.988531 -0.000004 0.000007 -0.000000 0.000001 -0.000000 -2.908307 -17.461768 -12.762987 4.654528 -7.924858 -7.806410 34.924765 -28.897844 28.484993 -7.028776 0.000009 -0.000013 -0.000000 0.000001 -0.000000 
0.491210 110.520523 -3.834602 -92.243378 0.762956 1.279813 3.564853 1.173821 -0.464971 15.819688 2.050238 -1.351606 0.000000 0.000000 0.000000 13.873240 2.617391 -1.626179 1.388062 0.796735 -3.274182 23.145674 3.425964 -10.301205 -0.000004 0.000000 0.000001 1.007911 5.213137 -0.072449 0.000000 0.000000 0.000000 18.126074 -46.854777 -41.156589 -0.000062 -78.131524 -0.000057 -11.365461 -10.354274 -4.045943 6.590538 -4.958657 16.122648 7.178846 21.567326 2.147316 -3.980791 36.507505 21.975999 0.000001 0.000002 0.000000 0.659518 4.932347 -26.024465 0.169798 1.401621 -13.813550 0.000000 0.000001 0.000000 1.376927 6.461949 -24.994181 0.169878 1.401987 -13.817110 -0.000001 0.000006 0.000003 2.098717 8.644297 -21.209675 0.169794 1.401616 -13.813550 -0.000001 -0.000002 -0.000001 2.123427 10.735872 -14.817563 0.167496 1.392240 -13.719349 0.000001 0.000001 -0.000000 0.964788 2.960578 16.488492 0.000000 0.000000 0.000000 -29.252150 40.564873 59.893116 0.000053 121.381423 -0.000047 2.367314 2.832865 15.788933 -3.770182 1.684410 8.767249 7.918241 -27.751668 -3.100782 -3.337699 -26.655602 -19.006810 0.000001 0.000001 0.000002 -0.371400 2.206055 53.128357 1.396307 -3.326830 45.526667 -0.000000 0.000001 -0.000001 -1.457726 -4.435184 63.714655 1.929850 -3.776461 54.123071 0.000000 0.000002 -0.000000 0.113340 -5.549120 69.688031 2.144038 -3.922165 57.313272 -0.000000 -0.000001 0.000000 2.818445 -6.533421 66.047588 2.835550 -4.286857 66.951618 0.000000 -0.000004 0.000000 -4.080481 17.637608 18.813568 5.747104 5.766589 1.503327 25.471690 29.360429 -30.589941 0.245324 -0.000008 -0.000011 -0.000000 0.000002 -0.000000 -3.267151 -17.386048 -12.479836 4.312910 -7.578957 -7.857607 36.247913 -29.178189 28.689960 -7.765491 -0.000019 -0.000002 0.000000 0.000001 0.000001 
